<?xml version="1.0" standalone="no"?>
<!DOCTYPE svg PUBLIC "-//W3C//DTD SVG 20010904//EN"
 "http://www.w3.org/TR/2001/REC-SVG-20010904/DTD/svg10.dtd">
<svg version="1.0" xmlns="http://www.w3.org/2000/svg"
 width="510.000000pt" height="510.000000pt" viewBox="0 0 510.000000 510.000000"
 preserveAspectRatio="xMidYMid meet">
<metadata>
Created by potrace 1.14, written by Peter Selinger 2001-2017
</metadata>
<g transform="translate(0.000000,510.000000) scale(0.100000,-0.100000)"
fill="#000000" stroke="none">
<path d="M2290 4181 c0 -6 4 -13 10 -16 6 -3 7 1 4 9 -7 18 -14 21 -14 7z"/>
<path d="M2360 4182 c0 -10 -51 -27 -125 -43 -27 -5 -60 -17 -72 -25 -13 -8
-23 -12 -23 -10 0 10 -180 -85 -241 -128 -37 -25 -72 -46 -78 -46 -6 0 -11 -4
-11 -10 0 -5 -6 -10 -13 -10 -8 0 -19 -10 -26 -23 -6 -12 -27 -33 -46 -46 -19
-12 -58 -49 -86 -82 -29 -32 -56 -56 -61 -53 -4 3 -8 -1 -8 -9 0 -13 -137
-191 -159 -207 -4 -3 -18 -21 -31 -40 -13 -19 -27 -37 -30 -40 -3 -3 -33 -45
-66 -95 -66 -101 -154 -276 -174 -347 -7 -28 -17 -45 -23 -41 -5 3 -7 2 -4 -4
4 -6 -1 -65 -10 -131 -15 -112 -15 -134 0 -279 9 -87 19 -169 22 -183 3 -14
10 -88 15 -165 13 -179 57 -363 101 -427 11 -14 19 -30 19 -36 0 -5 7 -15 15
-22 9 -7 14 -19 11 -27 -3 -8 -2 -12 2 -9 5 3 21 -21 37 -52 16 -31 37 -68 47
-81 10 -13 15 -28 11 -34 -3 -6 -1 -7 5 -3 12 7 69 -51 64 -66 -1 -5 1 -7 6
-4 5 3 18 -4 28 -14 21 -22 72 -71 113 -109 14 -14 25 -29 23 -34 -1 -5 2 -6
8 -2 5 3 20 -3 32 -14 12 -12 28 -21 36 -21 7 0 34 -17 60 -39 107 -88 300
-165 452 -180 99 -10 285 -8 340 4 80 17 152 26 157 21 3 -3 13 -1 23 4 9 5
42 10 73 11 31 1 57 5 57 9 0 3 12 6 28 7 63 2 297 44 352 63 14 5 52 16 85
26 56 17 185 78 280 133 22 13 61 46 88 75 26 28 63 67 81 86 29 31 73 91 101
138 6 9 21 34 34 57 14 22 40 69 58 105 19 36 41 70 48 76 8 6 12 13 9 17 -3
3 3 8 14 11 13 5 18 13 15 25 -3 10 11 50 31 88 20 38 36 74 36 81 0 6 6 9 13
6 8 -3 13 4 14 16 2 25 34 113 43 120 25 18 42 76 46 154 3 43 9 63 24 76 21
18 28 36 10 25 -13 -8 -13 36 0 70 12 30 16 173 6 196 -5 11 0 19 16 27 l23
11 -23 0 c-21 1 -23 6 -22 39 1 20 1 42 -1 47 -4 16 -8 68 -9 105 -1 42 -18
110 -28 110 -5 0 -8 16 -9 35 -1 19 -8 42 -17 51 -9 8 -14 20 -11 25 4 5 2 9
-2 9 -5 0 -14 9 -21 21 -11 17 -11 20 0 13 10 -6 10 -4 -1 9 -7 9 -11 17 -7
17 7 0 -22 48 -41 68 -14 15 -17 35 -6 46 4 3 8 17 9 29 l3 22 -11 -22 c-6
-13 -18 -23 -26 -23 -9 0 -13 3 -9 6 3 4 1 12 -6 20 -29 33 -37 44 -37 53 0
18 -23 61 -33 61 -15 0 -36 32 -37 55 0 11 -9 27 -19 35 -11 7 -18 17 -16 20
2 4 -7 13 -20 20 -14 7 -27 21 -31 32 -3 10 -12 18 -20 18 -24 0 -44 23 -44
50 0 6 -7 10 -15 10 -8 0 -15 4 -15 10 0 5 -15 24 -33 43 -19 18 -33 41 -31
50 2 12 -5 17 -22 17 -14 0 -22 4 -19 10 3 6 -1 10 -10 10 -9 0 -13 5 -10 10
3 6 -3 10 -14 10 -11 0 -22 9 -26 20 -4 13 -15 20 -31 20 -13 0 -29 9 -36 20
-7 11 -23 20 -35 20 -13 0 -23 5 -23 10 0 6 -7 10 -15 10 -8 0 -15 4 -15 8 0
4 -16 14 -35 21 -19 7 -35 17 -35 22 0 5 -11 9 -24 9 -16 0 -27 7 -31 20 -4
12 -15 20 -29 20 -13 0 -31 10 -40 23 -9 12 -14 15 -10 7 7 -13 5 -13 -9 -1
-9 7 -14 17 -11 22 3 5 -9 9 -25 9 -25 0 -31 4 -31 21 0 11 -4 18 -10 14 -5
-3 -6 -13 -3 -22 5 -13 2 -15 -11 -10 -10 4 -29 10 -42 13 -13 3 -24 10 -24
15 0 5 -9 9 -20 9 -11 0 -20 5 -20 10 0 6 -118 10 -335 10 -184 0 -335 -4
-335 -8z"/>
<path d="M4190 2120 c0 -5 7 -10 15 -10 8 0 15 5 15 10 0 6 -7 10 -15 10 -8 0
-15 -4 -15 -10z"/>
<path d="M3910 1627 c0 -21 -27 -71 -55 -101 -14 -15 -25 -31 -25 -35 0 -5
-22 -33 -50 -62 -51 -56 -56 -64 -41 -73 5 -3 30 18 55 47 25 28 53 59 61 68
8 9 15 21 15 27 0 6 12 20 26 31 22 17 24 23 14 36 -11 13 -10 15 1 10 15 -5
42 41 33 56 -8 14 -34 10 -34 -4z"/>
<path d="M3688 1336 c-14 -14 -29 -22 -32 -18 -4 3 -9 -4 -13 -16 -3 -12 -8
-20 -12 -18 -4 3 -13 1 -21 -4 -11 -7 -11 -11 -1 -24 12 -14 15 -13 33 10 11
14 27 23 34 20 8 -3 14 -1 14 4 0 6 9 19 20 30 40 40 20 54 -22 16z"/>
<path d="M3579 1252 c-2 -5 -25 -20 -51 -33 -34 -17 -45 -28 -39 -37 7 -12 14
-11 40 2 17 9 31 20 31 25 0 5 12 12 26 15 14 4 24 12 22 18 -5 15 -25 22 -29
10z"/>
<path d="M3421 1160 c-12 -11 -27 -17 -32 -14 -10 6 -12 -19 -2 -29 3 -4 13
-1 22 7 9 8 19 15 24 15 26 3 47 14 47 27 0 20 -31 17 -59 -6z"/>
<path d="M3315 1109 c-22 -5 -44 -14 -49 -19 -6 -6 -20 -10 -32 -10 -17 0 -21
-4 -17 -20 5 -20 23 -28 23 -10 0 6 3 9 8 8 21 -6 136 45 125 55 -7 8 -5 8
-58 -4z"/>
<path d="M3185 1060 c-4 -6 -3 -16 3 -22 6 -6 12 -6 17 2 4 6 3 16 -3 22 -6 6
-12 6 -17 -2z"/>
</g>
</svg>
